<svg version="1.2" xmlns="http://www.w3.org/2000/svg" viewBox="0 0 1190 1158" width="1190" height="1158">
	<title>4681715-ai</title>
	<defs>
		<clipPath clipPathUnits="userSpaceOnUse" id="cp1">
			<path d="m1218.91 1496.35h-1247.26v-1740.48h1247.26z"/>
		</clipPath>
	</defs>
	<style>
		.s0 { fill: #d1f4f5 } 
		.s1 { fill: #6d573e } 
		.s2 { fill: #efc9a3 } 
		.s3 { fill: #a68359 } 
		.s4 { fill: #402c49 } 
		.s5 { fill: #ecac64 } 
		.s6 { fill: #dc9243 } 
		.s7 { fill: #ffffff } 
		.s8 { fill: #984058 } 
		.s9 { fill: #ffdb8a } 
		.s10 { fill: #f4d071 } 
		.s11 { fill: #eca85e } 
		.s12 { fill: #564b4a } 
		.s13 { fill: #c2b7af } 
		.s14 { fill: #847574 } 
		.s15 { fill: #ddd4bc } 
		.s16 { fill: #fbeed1 } 
		.s17 { fill: #99a3b0 } 
		.s18 { opacity: .3;fill: #402c49 } 
		.s19 { fill: #d4cfbe } 
		.s20 { fill: #797c99 } 
		.s21 { fill: #eba7ac } 
		.s22 { fill: #e68799 } 
		.s23 { fill: #c7d2d7 } 
		.s24 { fill: #a64f5a } 
		.s25 { opacity: .5;fill: #402c49 } 
		.s26 { fill: #f4af9a } 
		.s27 { fill: #e36b85 } 
		.s28 { fill: #6ca8bc } 
	</style>
	<g id="PRINT">
		<g id="&lt;Clip Group&gt;" clip-path="url(#cp1)">
			<g id="&lt;Group&gt;">
				<g id="&lt;Group&gt;">
					<path id="&lt;Path&gt;" class="s0" d="m222.6 950.7c-68.1-79.2-90.4-197-51.7-294 17.8-44.4 47-86.1 48.7-133.9 1.9-54.4-32.2-102.7-49.3-154.4-35.7-107.5 10.7-236.5 106.7-296.6 96-60.1 232.3-45.5 313.4 33.5 47.6 46.4 77.4 111.4 134.1 146 44.7 27.3 99.2 31.3 150.8 40.8 51.5 9.6 106.5 28.9 133.3 73.9 32.5 54.3 11.9 124.1-14.2 181.8-26.1 57.7-58 118.9-45.3 181 8 38.9 32.7 72.1 47.3 109 14.6 37 10.5 87.8-20.3 112.9z"/>
					<path id="&lt;Path&gt;" class="s0" d="m692.3 159.7c-31.3-38.7-31-82.5 24.2-96.4 52.4-13.2 112.1-7.2 162.8 9.7 26.2 8.7 52 21.5 69.5 42.8 17.5 21.3 24.8 52.7 12.1 77.1-12.3 23.9-39.7 35.9-66 40.9-45.7 8.8-94.3 1.8-135.6-19.5-25.8-13.3-48.7-32.1-67-54.6z"/>
				</g>
				<g id="&lt;Group&gt;">
					<g id="&lt;Group&gt;">
						<g id="&lt;Group&gt;">
							<g id="&lt;Group&gt;">
								<path id="&lt;Path&gt;" class="s1" d="m582.2 200.2l-5.2-25.7c-2.2-10.9-0.7-22.3 4.3-32.2l18.5-37.3c2.8-5.4 10.9-4.2 11.9 1.8l2.5 14.4c3.2 18.5 8 36.8 14.2 54.5 2.1 5.7 3.6 10.1 3.7 10.3z"/>
								<path id="&lt;Path&gt;" class="s2" d="m585.3 177.6c-1.3-8.7-0.4-18 2.6-26l10.8-28.3 0.6 4.6c2.5 19 6.2 37.8 11.1 56 0 0.3 1.1 4.3 1.2 4.6l-23.4 6.6z"/>
							</g>
							<path id="&lt;Path&gt;" class="s1" d="m675 192.7c22.3-19.7 43.6-40.6 63.6-62.7 5.9-6.4 16.5-3.3 18 5.2l4.7 26.5c2.6 14.6-0.7 29.7-9.1 41.9l-28.8 41.7z"/>
							<path id="&lt;Path&gt;" class="s2" d="m692.1 199.5c19.9-18 39.1-37.1 57.1-56.9 0.2-0.2 0.3-0.3 0.5-0.3 0.2 0 0.8 0.1 0.9 0.7l4.7 26.5c2.1 12.2-0.5 24.6-7.6 34.8l-21.9 31.8z"/>
							<g id="&lt;Group&gt;">
								<path id="&lt;Path&gt;" class="s1" d="m706.1 447.8l33.4 110.8-294.5 4.7 5.3-82.3 68.2-16.8c18-4.4 32.2-18.3 37-36.3l17.7-65.5v-0.1l75.5-29c13.3-5.1 25.6-12.7 36.1-22.4 4.2-3.9 11-0.9 11 4.8v63c0 23.4 3.5 46.7 10.3 69.1z"/>
								<path id="&lt;Path&gt;" class="s3" d="m799.6 557.6l-60.1 1-33.4-110.8c-6.8-22.4-10.3-45.7-10.3-69.1v-63c0-5.6-6.6-8.6-10.8-5-10.3 8.8-21.3 16.9-34 21.7l-77.8 29.9-25.5-115 18.6-35.1c5-9.5 13.6-16.6 24-19.7l42.7-13c14.8-4.5 30.9-1.5 43.1 8l34.4 26.8c13.1 10.2 20.8 26 20.8 42.6v157.3z"/>
							</g>
							<path id="&lt;Path&gt;" class="s2" d="m562.6 245.6c7.8-0.9 14.7-5.6 18.5-12.6l15.3-28.5c1.4-2.6 5.3-1.1 4.7 1.7l-7.8 33.4c-1.6 6.9 0 14.2 4.2 19.9l14.9 20.1c7.9 10.5 21.3 15.1 33.9 11.7 1.8-0.5 3.7-0.4 5.5 0.2 6.6 2.2 8.5 10.6 3.6 15.5l-41.9 41.8c-10.7 10.6-25.6 15.6-40.5 13.6l-61.8-8.4c-14.8-2-27.7-11.1-34.6-24.3l-9.6-18.3c-6.8-12.8-1.2-28.6 12.1-34.4l68.6-29.7z"/>
							<path id="&lt;Path&gt;" class="s4" d="m593.2 319.7l-23 10.3c-10.8 4.7-22.4 7.1-34 7.1-10.9 0-21.7-2.1-31.9-6.3l-8.3-3.4-0.8 0.9c-2 2-4.7 3-7.4 3-2.5 0-4.9-0.9-6.9-2.6l-5.6-5c-0.8-0.7-0.8-1.9-0.1-2.7 0.7-0.8 1.9-0.9 2.7-0.2l5.5 5c2.6 2.3 6.6 2.2 9.1-0.2l0.9-1-3.3-9.2 0.2-7.8c0-1.1 0.9-1.9 1.9-1.9 1.1 0 1.9 0.9 1.9 2l-0.1 7.1 3.1 8.9 8.7 3.6c20.1 8.3 42.9 8 62.8-0.9l23-10.2c1-0.4 2.1 0 2.6 1 0.4 0.9 0 2.1-1 2.5z"/>
							<path id="&lt;Path&gt;" class="s4" d="m492 315.1c-9.4-2.9-17.2-10.6-20.6-19.9-1.2-3.3 1-7 4.5-7.6 14.2-2.4 29-1.3 42.8 3.2 4.1 1.3 5.3 6.5 2.3 9.5-9.5 9.5-21.6 13.9-29 14.8z"/>
							<path id="&lt;Path&gt;" class="s4" d="m649.9 245.3c0 6.1-4.9 11-11 11-6 0-10.9-4.9-10.9-11 0-6 4.9-11 10.9-11 6.1 0 11 5 11 11z"/>
							<path id="&lt;Path&gt;" class="s1" d="m638 216.2c-7.1-1.9-3.2-8 1.5-10.5 4.8-2.6 11-3.3 16.4-1.7 5.4 1.5 9.9 5.3 12.1 9.9 1.1 2.5 1.3 5.9-1.3 7.3-1.7 0.9-4 0.5-5.9 0.1-7.6-1.7-15.3-3.2-22.8-5.1z"/>
							<path id="&lt;Path&gt;" class="s4" d="m578.3 229.4c0 5.3-2.8 9.7-6.2 9.7-3.4 0-6.2-4.4-6.2-9.7 0-5.4 2.8-9.8 6.2-9.8 3.4 0 6.2 4.4 6.2 9.8z"/>
							<path id="&lt;Path&gt;" class="s1" d="m577.6 207.3c-4.3 0.3-4.7-5.5-3.3-8.7 1.4-3.3 4.3-5.3 7.6-5.4 3.4-0.1 7.1 1.8 10 4.9 1.5 1.7 3 4.4 2.2 6.2-0.5 1.1-1.8 1.4-3 1.5-4.5 0.5-8.9 1.2-13.5 1.5z"/>
						</g>
						<g id="&lt;Group&gt;">
							<g id="&lt;Group&gt;">
								<path id="&lt;Path&gt;" class="s5" d="m251 566.3l725.1-11.5-35.9 208.8-3.8 187.1h-671.3l19.8-159.5-3.3-5.9c-1.8-3.2-1.7-7.1 0.2-10.2l7-11.3-8.3-5.1c-5-3.1-6-9.9-2.1-14.3l8-8.9z"/>
								<path id="&lt;Path&gt;" class="s6" d="m743.9 850.9c-39.8 17.7-82.5 27.7-126 29.6l-70.2 2.9 392.5-119.8z"/>
								<path id="&lt;Path&gt;" class="s6" d="m366.6 848.8l143.2 16.4-58.5 11.6c-21.2 4.3-43.2-0.1-61.1-12.1z"/>
								<path id="&lt;Path&gt;" class="s6" d="m294.8 788.9l91.7-7.6-38 11.4c-9.4 2.8-19.3 3.2-28.8 1.3z"/>
								<path id="&lt;Path&gt;" class="s6" d="m303.2 733.5l60.1-17.2c8.3-2.4 17-3.5 25.6-3.2l69.3 1.9-71 16.4c-6.2 1.4-12.6 2.1-19.1 2.1z"/>
								<g id="&lt;Group&gt;" style="opacity: .5">
									<path id="&lt;Path&gt;" class="s7" d="m354.9 697.5l4.5 0.7-76.3 21.8-12.3-59.1 77.5-26.6-4.8 7.1 6.4 2-2.5 7.8 4.1 1.5-3.5 9.1 5.3 1.2-3.5 9 5.3 1.2-4.2 8.3 5.8 0.9-3.7 8.1 5.1 0.5z"/>
								</g>
							</g>
							<g id="&lt;Group&gt;">
								<path id="&lt;Path&gt;" class="s7" d="m853.8 738.7l-438.4 90.9-22.3-155.9 442.3-63.4z"/>
								<path id="ADOPTANOS" class="s4" aria-label="ADOPTANOS"  d="m465.4 724l20.6 30.6q1.3 1.9 1.4 2.9 0.3 2.1-2.8 4.3-1.9 1.3-3.2 1.5-1 0.1-1.8-0.3-0.8-0.4-1.3-1-0.3-0.5-1.1-1.6l-4-5.9-16.3 2.3-2.1 6.8q-0.5 1.3-0.7 1.8-0.2 0.6-0.9 1.3-0.7 0.6-1.6 0.8-1.4 0.2-3.5-0.5-3.7-1.2-4-3.3-0.1-1 0.6-3.2 0 0 11.2-35.2 0.5-1.4 1.6-2.4 1.3-1.1 2.7-1.3 3.2-0.4 5.2 2.4zm2.3 22.3l-5.1-7.5-2.7 8.7zm58-12.4q1.3 9-4.1 16.3-5.4 7.3-14.4 8.6l-10.8 1.6q-1.7 0.2-2.9 0-1.2-0.2-1.8-0.9-0.6-0.7-0.8-1.5-0.2-0.8-0.4-2.1l-4.7-32.8q-0.2-1.4-0.2-2.1 0-0.6 0.3-1.6 0.4-0.9 1.4-1.4 1.1-0.5 3-0.8 1.8-0.3 5.4-0.7 3.7-0.6 5.5-0.8 8.5-1.2 15.9 4 7.4 5.2 8.6 14.2zm-10.3 1.8q-0.7-4.8-4.5-7.5-3.8-2.7-8.3-2.1l-5.6 0.8 3.2 22.3 5.7-0.8q4.2-0.6 7.2-4.2 2.9-3.7 2.3-8.5zm31.3-27.1q8.7-1.2 16 4.2 7.4 5.3 8.7 15 1.3 9-3.8 16.5-5.2 7.4-14 8.6-9.1 1.4-16.4-4.2-7.1-5.6-8.4-14.6-0.7-4.8 0.4-9.3 1.2-4.6 3.7-7.9 2.6-3.3 6.1-5.5 3.6-2.2 7.7-2.8zm5.1 34q4.2-0.6 7.1-4.3 2.9-3.7 2.1-9.1-0.7-5.3-4.6-8-3.8-2.8-8-2.2-4.2 0.6-7.1 4.4-2.9 3.7-2.1 9 0.7 5.2 4.5 8 3.9 2.8 8.1 2.2zm53.5-32.9q2 2.9 2.5 6.7 0.6 3.8-0.5 7.2-1.1 3.2-3.3 5.4-2.1 2.2-4.6 3.6-2.5 1.3-5 1.6l-7.3 1.1 0.9 6.6q0.2 1.4 0.2 2.1 0 0.7-0.3 1.6-0.4 1-1.4 1.5-1.1 0.5-3 0.8-1.5 0.2-2.6 0-1-0.1-1.6-0.4-0.6-0.4-1-1.1-0.3-0.8-0.5-1.3 0-0.6-0.2-1.7l-4.7-32.7q-0.2-1.4-0.2-2 0-0.7 0.3-1.7 0.4-0.9 1.5-1.5 1-0.5 2.9-0.7l12.6-1.8q2.5-0.4 5.2 0.2 2.8 0.6 5.4 2.1 2.7 1.5 4.7 4.4zm-7.9 8.1q-0.3-2.5-2.2-3.6-1.9-1.1-3.8-0.8l-7.3 1 1.5 10.5 7.4-1.1q1.8-0.3 3.3-1.8 1.5-1.5 1.1-4.2zm12.3-17.7l32.8-4.7q1.2-0.2 1.7-0.2 0.5 0 1.3 0.3 0.8 0.2 1.2 1.1 0.4 0.9 0.6 2.5 0.3 1.5 0.1 2.5-0.2 0.9-0.8 1.4-0.7 0.4-1.3 0.6-0.5 0.2-1.7 0.3l-11.2 1.6 4.2 29.7q0.2 1.3 0.2 2 0 0.6-0.3 1.6-0.3 0.9-1.4 1.4-1 0.5-2.9 0.8-1.8 0.2-3 0-1.1-0.2-1.7-0.9-0.5-0.9-0.7-1.5-0.2-0.7-0.4-2l-4.2-29.6-11.3 1.6q-1.1 0.2-1.7 0.2-0.6 0-1.3-0.3-0.8-0.2-1.2-1.1-0.4-0.9-0.7-2.5-0.2-1.5 0-2.4 0.1-1 0.8-1.5 0.7-0.4 1.2-0.6 0.6-0.2 1.7-0.3zm56.8-5l20.6 30.6q1.3 1.9 1.4 2.9 0.3 2.1-2.8 4.3-1.9 1.3-3.3 1.5-0.9 0.1-1.7-0.3-0.8-0.5-1.3-1-0.3-0.5-1.1-1.6l-4-6-16.3 2.4-2.1 6.8q-0.5 1.2-0.7 1.8-0.3 0.6-0.9 1.3-0.7 0.6-1.6 0.8-1.4 0.2-3.5-0.6-3.7-1.1-4-3.2-0.1-1 0.6-3.2 0 0 11.2-35.2 0.4-1.4 1.6-2.4 1.3-1.1 2.7-1.3 3.2-0.4 5.2 2.4zm2.3 22.3l-5.1-7.5-2.7 8.7zm49.9-32.9q1.5-0.2 2.5-0.1 1.1 0.2 1.7 0.5 0.6 0.3 0.9 1.1 0.4 0.8 0.5 1.3 0.1 0.6 0.3 1.7l4.7 32.7q0.2 1.4 0.2 2.1 0 0.6-0.3 1.6-0.4 0.9-1.5 1.4-1 0.5-2.9 0.8-2.3 0.3-3.2 0.1-1-0.2-1.7-0.9-15.8-15.8-20.7-20.6l2.8 19.4q0.2 1.4 0.1 2.1 0.1 0.6-0.3 1.6-0.3 0.9-1.4 1.4-1.1 0.6-2.9 0.8-1.9 0.3-3 0.1-1.1-0.2-1.7-1-0.6-0.8-0.9-1.5-0.1-0.7-0.3-2.1l-4.7-32.8q-0.2-1.4-0.2-2.1 0-0.6 0.3-1.5 0.4-0.9 1.4-1.4 1.1-0.5 3-0.8 1.6-0.2 2.7 0 1.1 0.1 1.6 0.5 0.4 0.3 1.2 1l0.3 0.3q14.9 15.1 19.9 19.9l-2.9-19.9q-0.2-1.3-0.2-2 0.1-0.6 0.4-1.5 0.3-0.9 1.4-1.4 1-0.5 2.9-0.8zm30-4.9q8.8-1.3 16.1 4.1 7.3 5.4 8.7 15.1 1.3 9-3.9 16.4-5.2 7.5-14 8.7-9.1 1.3-16.3-4.3-7.2-5.5-8.5-14.5-0.7-4.9 0.5-9.4 1.1-4.5 3.7-7.8 2.5-3.3 6.1-5.5 3.6-2.2 7.6-2.8zm5.1 33.9q4.2-0.6 7.1-4.2 2.9-3.7 2.2-9.1-0.8-5.3-4.7-8.1-3.8-2.7-7.9-2.1-4.3 0.6-7.2 4.4-2.8 3.7-2.1 9 0.8 5.2 4.6 8 3.9 2.7 8 2.1zm27 0.6l-0.6-0.6q-1.8-1.7-2-2.9-0.3-1.8 1.9-4.6 1.3-1.6 2.8-1.9 1.8-0.2 4.8 2l0.3 0.3q0.3 0.3 0.9 0.7 0.5 0.4 2 1 1.4 0.6 2.7 0.4 5.5-0.8 4.9-5.3-0.2-1.3-1.9-2-1.6-0.7-3.9-0.8-2.3-0.1-5-0.6-2.7-0.6-5.1-1.5-2.5-0.9-4.4-3.4-1.8-2.5-2.4-6.2-0.7-5.2 2.6-9.6 3.3-4.4 9.9-5.4 3.6-0.5 6.6 0 3.1 0.5 4.3 1.3l1.3 0.7 0.4 0.2q2 1.4 2.2 2.6 0.2 1.2-0.9 3.5-1.6 3.2-3.7 3.5-1.3 0.2-3.3-0.7-0.2-0.1-0.8-0.5-0.5-0.4-1-0.6-0.4-0.2-1.4-0.3-1-0.2-2.3 0-1.4 0.2-2.6 1.3-1.1 1.1-0.9 2.6 0.3 1.7 1.9 2.5 1.6 0.8 3.9 0.8 2.3 0.1 5.1 0.4 2.7 0.4 5.1 1.1 2.4 0.7 4.3 3.2 1.9 2.4 2.4 6.2 0.6 3.8-0.5 7-1.2 3.1-3.4 5-2.2 2-4.7 3.1-2.5 1.1-5 1.5-2.8 0.4-5.4 0.1-2.6-0.3-4.3-1.1-1.7-0.7-3-1.6-1.2-0.8-1.8-1.4z"/>
							</g>
							<path id="&lt;Path&gt;" class="s6" d="m278.1 696l-104.5 37.5 77.4-167.2z"/>
							<path id="&lt;Path&gt;" class="s6" d="m976.1 554.8l60.2 168.5-84-30z"/>
						</g>
						<g id="&lt;Group&gt;">
							<path id="&lt;Path&gt;" class="s8" d="m339.7 358.8l-13 34.3-3.5-0.7 7-31.1z"/>
							<path id="&lt;Path&gt;" class="s8" d="m315.5 364.4l-3.4 32.2h-3.3l-1.4-33.2z"/>
							<path id="&lt;Path&gt;" class="s9" d="m367 291.2c1-2.4 1.9-4.9 3.7-6.8 1.7-1.9 4.4-3.1 6.9-2.4 2.8 0.7 4.6 3.7 4.8 6.6 0.3 2.9-0.7 5.7-1.7 8.4-4.8 13-11.1 25.5-18.7 37.2-1 1.5-3.9 7.5-5.8 7.7-3.2 0.2-1.2-5.5-0.9-7.2q1.7-10.4 4.4-20.7 3.1-11.6 7.3-22.8z"/>
							<path id="&lt;Path&gt;" class="s10" d="m383.2 293.2c1.7-2.2 3.4-4.4 5.8-5.8 2.3-1.3 5.4-1.7 7.7-0.1 2.6 1.7 3.4 5.3 2.8 8.4-0.7 3.1-2.6 5.7-4.4 8.1-8.9 11.8-19.1 22.6-30.4 32.1-1.5 1.2-6.2 6.4-8.2 5.9-3.3-0.8 0.5-6 1.3-7.7q5-10.2 10.9-19.8 6.7-11 14.5-21.1z"/>
							<path id="&lt;Path&gt;" class="s11" d="m392.9 303.9c2-1.6 4.1-3.2 6.6-4 2.5-0.7 5.4-0.3 7.2 1.5 2 2.1 2 5.5 0.7 8.1-1.3 2.6-3.5 4.6-5.8 6.4-10.8 8.7-22.7 16.2-35.2 22.2-1.6 0.8-7.1 4.5-8.9 3.6-2.8-1.4 1.8-5.3 2.9-6.6q6.9-8 14.5-15.4 8.6-8.4 18-15.8z"/>
							<path id="&lt;Path&gt;" class="s10" d="m319.6 367.4c-18.5 1.4-37.3-8.1-47.3-23.7-10-15.7-10.6-36.8-1.6-52.9 5-9.1 13.2-16.8 23.2-19.6 10.1-2.7 21.9 0.2 28.2 8.4 10.7 14 3.1 36.3 14.2 50 3.3 4 8.1 6.7 13.2 7.6 3.5 0.7 12.8-1.7 11.4 4.1-1.1 4.4-6.9 9.5-10 12.4-4.1 3.7-8.6 6.7-13.6 9-5.5 2.6-11.6 4.3-17.7 4.7z"/>
							<path id="&lt;Path&gt;" class="s11" d="m360.9 341.3c-1.1 4.4-6.9 9.5-10 12.4-4.1 3.7-8.6 6.7-13.6 9-5.5 2.6-11.6 4.3-17.7 4.7-18.5 1.4-37.3-8.1-47.3-23.7-6-9.5-8.6-20.9-7.8-32 3 5.2 7.3 9.6 12 13.1 10 7.5 22.4 11.8 34.9 11.9 9 0.1 18-1.9 26.2-5.7 3.2 3.2 7.4 5.4 11.9 6.2 3.5 0.7 12.8-1.7 11.4 4.1z"/>
							<path id="&lt;Path&gt;" class="s8" d="m319 294.5l16.1 8-18.6 0.9c-3 0.2-5.1-2.9-3.9-5.6l0.6-1.2c1-2.2 3.6-3.2 5.8-2.1z"/>
							<path id="&lt;Path&gt;" class="s4" d="m310.5 286c0 2.5-2.1 4.6-4.7 4.6-2.6 0-4.7-2.1-4.7-4.6 0-2.6 2.1-4.7 4.7-4.7 2.6 0 4.7 2.1 4.7 4.7z"/>
						</g>
						<g id="&lt;Group&gt;">
							<g id="&lt;Group&gt;">
								<path id="&lt;Path&gt;" class="s12" d="m222.6 392.4c16.2 7.7 36.7 29.8 36.7 29.8l-38.1 69.2c-0.7-27.9-18.9-49.5-18.9-49.5z"/>
								<path id="&lt;Path&gt;" class="s4" d="m212.2 457.5c-4.9-9.6-9.9-15.6-9.9-15.6l20.3-49.5c7.9 31.1-0.9 51.5-10.4 65.1z"/>
								<path id="&lt;Path&gt;" class="s12" d="m222.6 392.4c-0.6 25.2-9.7 50.1-25.5 69.7-3 3.7-6.9 7.5-11.6 7.1-5.6-0.5-8.9-6.6-10.2-12.1-2.9-11.3-2.2-23.5 2-34.5z"/>
							</g>
							<g id="&lt;Group&gt;">
								<path id="&lt;Path&gt;" class="s12" d="m454.5 384.8c0 0-8.4 27 1.9 52.9l-62.1-48.8c0 0 10.2-28.3 22.1-41.7z"/>
								<path id="&lt;Path&gt;" class="s4" d="m416.4 347.2l38.1 37.6c0 0-2.3 7.4-3 18.2-14.1-8.8-30.2-24.1-35.1-55.8z"/>
								<path id="&lt;Path&gt;" class="s12" d="m469.9 357.2c8.1 8.5 13.5 19.4 15.4 31 0.8 5.6 0.3 12.4-4.7 15.1-4.2 2.2-9.3 0.2-13.5-2-22.2-11.8-40.3-31.2-50.7-54.1z"/>
							</g>
							<g id="&lt;Group&gt;">
								<path id="&lt;Path&gt;" class="s13" d="m215.4 491.1l16.2-44.7c8.5-23.6 28.5-41.2 53-46.6l73.7-16.3c22.5-5 46.1 1.3 63.2 17l46.5 42.5c9.9 9.1 13.1 23.5 7.9 36l-22.4 53.8c-7.4 17.7-23.5 30.2-42.4 32.8l-105.7 14.8c-17.5 2.5-35.1-3.8-47.1-16.7l-36-38.7c-8.4-9.1-11.1-22.2-6.9-33.9z"/>
								<path id="&lt;Path&gt;" class="s14" d="m306 436.6c4.1-0.2 8.4-0.1 11.8 2.1 4.8 3.1 6.3 9.5 6.3 15.2-0.1 13.7-6.6 27.1-17.3 35.6-4.2 3.3-9.1 6-14.4 6.8-5.2 0.9-11-0.2-15.1-3.5-3.9-3.1-6.1-7.7-8.2-12.2-4.5-9.6-6.1-20.4 0.3-29.6 3.9-5.6 9.9-9.3 16.4-10.6 6.9-1.4 13.1-3.4 20.2-3.8z"/>
								<path id="&lt;Path&gt;" class="s4" d="m306.9 466.6c0 6.7-5.5 12.2-12.3 12.2-6.8 0-12.2-5.5-12.2-12.2 0-6.8 5.4-12.3 12.2-12.3 6.8 0 12.3 5.5 12.3 12.3z"/>
								<path id="&lt;Path&gt;" class="s14" d="m283.6 434.4c-2.8 0.5-6.5 1.9-9.4 1.1-8.3-2.5-3-12.6 1.5-15.8 5.8-4.1 13.2-6.1 20.3-5.3 3.2 0.3 6.4 1.3 8.8 3.5 2.3 2.2 3.4 5.9 1.9 8.8-1.6 3-5.4 4-8.8 4.7q-7.1 1.5-14.3 3z"/>
								<path id="&lt;Path&gt;" class="s14" d="m390.6 420.2c6.5-1.4 13.5-0.5 19.2 3.1 9.6 5.8 12.6 16.3 12.3 26.9-0.1 5-0.3 10.1-2.6 14.5-2.4 4.7-7.2 8-12.4 9.3-5.2 1.4-10.7 0.9-15.9-0.4-13.2-3.5-24.6-13.2-30.1-25.6-2.4-5.2-3.6-11.7-0.5-16.5 2.2-3.4 6.2-5.2 10-6.6 6.7-2.5 13.2-3.2 20-4.7z"/>
								<path id="&lt;Path&gt;" class="s4" d="m388.2 436.5c6.1-2.8 13.4 0 16.1 6.2 2.7 6.2-0.1 13.5-6.3 16.2-6.2 2.7-13.4-0.1-16.1-6.3-2.7-6.2 0.1-13.4 6.3-16.1z"/>
								<path id="&lt;Path&gt;" class="s14" d="m375.9 416.8c-3.4 0.8-7.2 1.4-10-0.7-2.5-2-3-5.9-1.7-8.8 1.2-3 3.8-5.2 6.6-6.8 6.2-3.5 13.7-4.8 20.7-3.3 5.4 1.1 14.3 8.2 7.7 13.8-2.3 1.9-6.2 2.2-9 2.8q-7.2 1.5-14.3 3z"/>
								<g id="&lt;Group&gt;">
									<path id="&lt;Path&gt;" class="s15" d="m366.6 468.4h13.7c5.9 0 11.7 1.6 16.7 4.7 7.5 4.5 16.5 5.8 24.9 3.6l6.7-1.8c7.8-2.1 16.1 0.3 21.7 6.1 6.1 6.5 7.8 16 4.2 24.2l-6.8 15.3c-8 18.3-24.8 31.2-44.5 34.3l-89.9 13.9c-18.9 2.9-37.9-3.5-51.2-17.2l-10.8-11.3c-4.2-4.4-6.1-10.6-5.1-16.6 1.3-7.8 7.3-14.1 15.1-15.7l16.9-3.5c8.1-1.7 15.3-6.1 20.4-12.5 4-5 9.4-8.9 15.4-11.1l7.9-2.9z"/>
									<path id="&lt;Path&gt;" class="s7" d="m307.7 513.7c2.6 7.7 6.1 15.1 10.3 22-5.3 1.9-11.1 2.5-16.7 1.6 0.6-8.2 2.7-16.3 6.4-23.6z"/>
									<path id="&lt;Path&gt;" class="s7" d="m417.9 513.9c-3.9 3.4-8.5 5.7-13.4 7 0-8.2-1-16.4-3-24.3 6.9 4.1 12.9 9.7 17.7 16.1z"/>
									<path id="&lt;Path&gt;" class="s4" d="m439.3 498l-20.1 17.3c-9 7.7-21.1 10.5-32.5 7.6l-17.9-4.7c-8.9-2.3-18.4-0.6-26 4.5l-16.1 10.8c-6 4.1-13.1 6.1-20.1 6.1-6.2 0-12.5-1.6-18-4.8l-13.3-7.6c-0.9-0.6-1.2-1.7-0.7-2.7 0.5-0.9 1.7-1.2 2.6-0.7l13.3 7.7c10.6 6.1 23.9 5.6 34-1.2l16.1-10.8c3.9-2.6 8.2-4.4 12.7-5.3l-2.5-17.3c-0.2-1.1 0.5-2.1 1.6-2.2 1-0.2 2 0.6 2.2 1.6l2.5 17.3c4.2-0.4 8.5-0.2 12.7 0.9l17.8 4.7c10.2 2.6 21.1 0.1 29.1-6.8l20.1-17.3c0.8-0.7 2-0.6 2.7 0.2 0.7 0.8 0.6 2.1-0.2 2.7z"/>
									<path id="&lt;Path&gt;" class="s4" d="m319.9 479.3l2-1.4c14.2-9.3 31.2-13.3 48.1-11.3l3.3 0.4c5.7 0.6 8.6 7 5.3 11.7l-8.5 12.1c-6.9 9.9-19.8 13.7-30.9 9.1l-18.1-7.4c-5.6-2.3-6.3-9.9-1.2-13.2z"/>
								</g>
							</g>
						</g>
						<g id="&lt;Group&gt;">
							<g id="&lt;Group&gt;">
								<g id="&lt;Group&gt;">
									<path id="&lt;Path&gt;" class="s16" d="m484.9 563.2c3 11 0 27.4-7.5 35.8-7.5 8.5-19.6 12.8-30.9 10.9-11.2-1.9-21.2-9.9-25.5-20.5-3.4-8.1-3.4-17.2-1.5-25.7 2.6-11.7 8.9-22.4 17.7-30.5-1.2 4.4-1.5 9.1-0.8 13.7 4.3-5.3 10.3-8.8 16.9-10.6-0.4 5.8 0.6 12.2 2.2 17.8 3.6-4.3 7.7-7.4 11.3-11.7 5.7 7.9 9.4 17.9 10.8 27.5 2.8-1.8 5.3-4.1 7.3-6.7z"/>
									<path id="&lt;Path&gt;" class="s17" d="m485.4 562.6h-0.6q0.1 0.3 0.1 0.6c-2 2.6-4.5 4.9-7.3 6.7-1.4-9.6-5.1-19.6-10.8-27.5-3.6 4.3-7.7 7.4-11.3 11.7-1.6-5.6-2.6-12-2.2-17.8-6.6 1.8-12.6 5.3-16.9 10.6-0.7-4.6-0.4-9.3 0.8-13.7 4-3.8 8.5-7 13.5-9.4 15.6-7.8 34.7-8.2 50.6-1 15.9 7.2 28.2 22.2 32.7 39z"/>
								</g>
								<path id="&lt;Path&gt;" class="s18" d="m514.8 562.1l-30 0.5c-3.7-13.4 3.8-22.2 8.5-25.1-0.9 2.1-1.6 4.9-2.5 7 6-0.8 12.4 1.9 16.9 5.8 3.6 3 6.1 7.3 7.1 11.8z"/>
							</g>
							<g id="&lt;Group&gt;">
								<g id="&lt;Group&gt;">
									<g id="&lt;Group&gt;">
										<g id="&lt;Group&gt;">
											<path id="&lt;Path&gt;" class="s17" d="m631.2 560.3l-62.8 1-63.7 1 0.7-1.4c6.7-12.3 15.3-23.6 25.3-33.4l2.1-2h35.6 35.5l2.6 2.5c9.8 9.5 18.1 20.4 24.7 32.3z"/>
											<path id="&lt;Path&gt;" class="s19" d="m602.3 560.8l-68.3 1c5.9-13.5 19.1-22.8 34.4-22.8 14.9 0 27.7 8.8 33.9 21.8z"/>
										</g>
										<path id="&lt;Path&gt;" class="s18" d="m606.5 528q2.7 2.6 5.2 5.4c-11.5 8.7-25.7 13.6-40.7 13.6h-5.3c-14.9 0-29.1-4.9-40.6-13.6q2.7-3 5.6-5.9l2.1-2h35.6 35.5z"/>
									</g>
									<g id="&lt;Group&gt;">
										<g id="&lt;Group&gt;">
											<path id="&lt;Path&gt;" class="s20" d="m490.4 360.5c14.6 8.8 26.9 20.9 35.7 35.5l7.9 13.1-46 46.1-1.8-7.5c-6.4-27-8.2-55-5-82.6 0.5-4.5 5.4-6.9 9.2-4.6z"/>
											<g id="&lt;Group&gt;">
												<path id="&lt;Path&gt;" class="s21" d="m492.2 394.1c0.5 17.1 2.6 34.1 6.1 50.7l-5.4 5.4c-0.3-1.9-4.2-17.9-4.5-19.8-3.3-19.4-4.1-39-2.4-58.7 11.2 7.7 20.7 17.7 27.7 29.3l10.7 17.6-3.7 3.8-4.1-6.9c-5.4-9.2-12.1-17.2-19.7-23.6-1.9-1.6-4.8-0.2-4.7 2.2z"/>
												<path id="&lt;Path&gt;" class="s22" d="m520.7 422.4l-22.4 22.4c-3.5-16.6-5.6-33.6-6.1-50.7-0.1-2.4 2.8-3.8 4.7-2.2 7.6 6.4 14.3 14.4 19.7 23.6z"/>
											</g>
										</g>
										<g id="&lt;Group&gt;">
											<path id="&lt;Path&gt;" class="s20" d="m655.1 365.1c3.1 27.6 1.4 55.6-5 82.6l-1.8 7.5-46-46.1 7.9-13.1c8.8-14.6 21-26.7 35.6-35.5 3.9-2.3 8.8 0.1 9.3 4.6z"/>
											<g id="&lt;Group&gt;">
												<path id="&lt;Path&gt;" class="s21" d="m639.3 391.9c-7.5 6.4-14.2 14.4-19.7 23.6l-4 6.9-3.8-3.8 10.7-17.6c7-11.6 16.5-21.6 27.7-29.3 1.8 19.7 1 39.3-2.3 58.7-0.3 1.9-4.2 17.9-4.6 19.8l-5.4-5.4c3.6-16.6 5.6-33.6 6.2-50.7 0-2.4-2.9-3.8-4.8-2.2z"/>
												<path id="&lt;Path&gt;" class="s22" d="m619.6 415.5c5.5-9.2 12.2-17.2 19.7-23.6 1.9-1.6 4.8-0.2 4.8 2.2-0.6 17.1-2.6 34.1-6.2 50.7l-22.3-22.4z"/>
											</g>
										</g>
										<g id="&lt;Group&gt;">
											<path id="&lt;Path&gt;" class="s17" d="m634.6 426.1l17.6 25c7.4 10.4 7.4 24.2 0 34.6l-17.6 25c-11.4 16.1-29.9 25.6-49.6 25.6h-33.2c-19.7 0-38.2-9.5-49.6-25.6l-17.7-25c-7.3-10.4-7.3-24.2 0-34.6l17.7-25c11.4-16.1 29.9-25.6 49.6-25.6h33.2c19.7 0 38.2 9.5 49.6 25.6z"/>
											<path id="&lt;Path&gt;" class="s4" d="m547.7 457c0 4.4-3.5 7.9-7.9 7.9-4.3 0-7.9-3.5-7.9-7.9 0-4.4 3.6-7.9 7.9-7.9 4.4 0 7.9 3.5 7.9 7.9z"/>
											<path id="&lt;Path&gt;" class="s20" d="m601 494.4l-6.9 6.9c-3.1 3.1-7.2 4.8-11.5 4.8-6.3 0-11.7-3.5-14.5-8.7-2.7 5.2-8.2 8.7-14.4 8.7-4.4 0-8.5-1.7-11.6-4.8l-6.9-6.9c-0.7-0.7-0.7-1.9 0-2.7 0.8-0.7 2-0.7 2.8 0l6.9 6.9c2.3 2.4 5.5 3.7 8.8 3.7 6.9 0 12.5-5.6 12.5-12.5v-0.8c0-1.1 0.9-1.9 1.9-1.9 1.1 0 1.9 0.8 1.9 1.9v0.8c0 6.9 5.7 12.5 12.6 12.5 3.3 0 6.4-1.3 8.8-3.7l6.9-6.9c0.8-0.7 2-0.7 2.7 0 0.8 0.8 0.8 2 0 2.7z"/>
											<path id="&lt;Path&gt;" class="s20" d="m533.1 440.4c-3.8 1.3-6.7-2.8-5.4-6.3 0.6-1.5 1.7-2.7 2.9-3.7 5.1-4.2 13.1-4.5 18.5-0.7 1.6 1.2 3 2.8 3.5 4.7 0.4 2-0.5 4.3-2.4 5-1.6 0.6-3.4-0.1-5.1-0.5-4.4-1.2-7.9 0.1-12 1.5z"/>
											<path id="&lt;Path&gt;" class="s4" d="m596.4 449.1c4.4 0 7.9 3.5 7.9 7.9 0 4.4-3.5 7.9-7.9 7.9-4.3 0-7.9-3.5-7.9-7.9 0-4.4 3.6-7.9 7.9-7.9z"/>
											<path id="&lt;Path&gt;" class="s20" d="m591.1 438.9c-1.7 0.4-3.5 1.1-5.1 0.5-1.8-0.7-2.7-3-2.3-5 0.4-1.9 1.9-3.5 3.5-4.7 5.4-3.8 13.3-3.5 18.5 0.7 1.2 1 2.3 2.2 2.8 3.7 1.3 3.5-1.5 7.6-5.3 6.3-4.2-1.4-7.6-2.7-12.1-1.5z"/>
											<g id="&lt;Group&gt;">
												<g id="&lt;Group&gt;">
													<path id="&lt;Path&gt;" class="s23" d="m534 482.7c-12.2-1.9-32-1.9-44.2 0 12.2 2 32 2 44.2 0z"/>
												</g>
												<g id="&lt;Group&gt;">
													<path id="&lt;Path&gt;" class="s23" d="m533.1 477.8c-11.2-5.3-30.2-11-42.4-12.5 11.1 5.3 30.1 10.9 42.4 12.5z"/>
												</g>
												<g id="&lt;Group&gt;">
													<path id="&lt;Path&gt;" class="s23" d="m533.1 487.7c-12.3 1.6-31.3 7.2-42.4 12.5 12.2-1.6 31.2-7.2 42.4-12.5z"/>
												</g>
											</g>
											<g id="&lt;Group&gt;">
												<g id="&lt;Group&gt;">
													<path id="&lt;Path&gt;" class="s23" d="m602.3 482.7c12.2-1.9 32-1.9 44.2 0-12.2 2-32 2-44.2 0z"/>
												</g>
												<g id="&lt;Group&gt;">
													<path id="&lt;Path&gt;" class="s23" d="m603.2 477.8c11.1-5.3 30.1-11 42.4-12.5-11.2 5.3-30.1 10.9-42.4 12.5z"/>
												</g>
												<g id="&lt;Group&gt;">
													<path id="&lt;Path&gt;" class="s23" d="m603.2 487.7c12.3 1.6 31.2 7.2 42.4 12.5-12.3-1.6-31.3-7.2-42.4-12.5z"/>
												</g>
											</g>
											<path id="&lt;Path&gt;" class="s4" d="m581.8 481.3l-4.6 4.3c-2.4 2.2-5.8 3.4-9.1 3.4-3.3 0-6.6-1.2-9-3.4l-4.7-4.3c-2.5-2.4-0.6-6.2 3.2-6.2h21.1c3.7 0 5.7 3.8 3.1 6.2z"/>
											<path id="&lt;Path&gt;" class="s20" d="m544.9 403q2.2-1.1 4.6-2 4.3-0.5 8.7-0.5h20.4c3.5 0 6.9 0.2 10.3 0.7 2 0.8 3.9 1.8 5.2 3.4 1.3 1.7 1.7 4.3 0.3 6-0.9 1.1-2.5 1.6-4 1.5-1.5 0-3-0.5-4.4-1-11.5-3.4-24-3.3-35.5 0.2-2 0.7-3.9 1.4-6 1.4-2 0-4.2-0.8-5.3-2.5-2.3-4 3-6 5.7-7.2z"/>
											<path id="&lt;Path&gt;" class="s20" d="m554.3 417.1c7.8-3.7 17.1-4.2 25.1-1 1.2 0.5 2.4 1 3.1 2 0.8 1 1 2.5 0.2 3.4-0.6 0.7-1.5 0.9-2.3 0.9-0.9 0-1.7-0.3-2.5-0.6-6.6-1.9-13.8-1.9-20.4 0.1-1.1 0.4-2.2 0.8-3.4 0.8-1.2 0-2.4-0.4-3-1.4-1.3-2.3 1.7-3.4 3.2-4.2z"/>
										</g>
									</g>
								</g>
								<path id="&lt;Path&gt;" class="s16" d="m538 565.5c0 8.7-8.8 15.7-19.7 15.7-10.8 0-19.6-7-19.6-15.7 0-8.6 8.8-15.7 19.6-15.7 10.9 0 19.7 7.1 19.7 15.7z"/>
								<path id="&lt;Path&gt;" class="s16" d="m618.4 549.8c10.9 0 19.6 7.1 19.6 15.7 0 8.7-8.7 15.7-19.6 15.7-10.8 0-19.6-7-19.6-15.7 0-8.6 8.8-15.7 19.6-15.7z"/>
							</g>
						</g>
						<g id="&lt;Group&gt;">
							<path id="&lt;Path&gt;" class="s4" d="m840.9 328.9c0-5.3 5.6-8.7 10.3-6.4l35.9 18c21.4 10.6 36.4 30.9 40.4 54.4l11.9 69.9c1 5.5-4.8 9.7-9.8 7.1l-40.7-21.6z"/>
							<g id="&lt;Group&gt;">
								<path id="&lt;Path&gt;" class="s24" d="m878.1 464.9l8.1 31.4c2.6 10.2 7.8 19.6 14.9 27.4l29.5 31.8-234.8 3.8 5.5-5.9c6-6.3 12.7-11.9 20-16.6l13.7-8.8c11.7-7.6 17.6-21.6 14.7-35.3l-4.2-20z"/>
								<path id="&lt;Path&gt;" class="s25" d="m782.2 514.2l-33.7-27.1-3-14.4 132.6-7.8 7.3 28.2c-6.7 9-16.2 15.4-27.1 18.1l-42.1 10.5c-11.9 3-24.5 0.2-34-7.5z"/>
							</g>
							<path id="&lt;Path&gt;" class="s24" d="m715.9 350.1c22.1-12.8 67.2-24.8 98.6-29 15.2-2 30.2 4.8 38.6 17.7l46.2 71.7c7.8 11.9 8.4 27.2 1.6 39.7l-5.9 11.1c-7.9 14.6-21.6 25.1-37.8 28.8l-38.1 8.9c-12.7 3-26 1.5-37.8-4l-56.3-26.6z"/>
							<path id="&lt;Path&gt;" class="s26" d="m900.9 450.2l-5.9 11.1c-7.9 14.6-21.6 25.1-37.8 28.8l-38.1 8.9c-12.7 3-26 1.5-37.8-4l-7.9-3.7c-8.4-4-14.9-11.3-18-20.1l-5-14.5c-1.1-3.3-0.3-6.9 2.1-9.3 8.5-8.7 21.2-16.5 36-23.1 10-4.4 15.2-15.5 12.5-26.1-6.5-25.2-17.6-52.8-27.2-69.1 5.1-1.3 10.2-2.5 15.3-3.5 10.8 15.9 25.9 42 35.2 66.1 4 10.4 14.6 16.6 25.6 14.8 15.9-2.6 31.5-3.6 45.1-2.8l4.3 6.8c7.8 11.9 8.4 27.2 1.6 39.7z"/>
							<path id="&lt;Path&gt;" class="s4" d="m772.8 395.4c0 4.6-3.7 8.3-8.3 8.3-4.6 0-8.3-3.7-8.3-8.3 0-4.6 3.7-8.3 8.3-8.3 4.6 0 8.3 3.7 8.3 8.3z"/>
							<path id="&lt;Path&gt;" class="s4" d="m854.5 376.6c0 4.5-3.7 8.2-8.3 8.2-4.6 0-8.3-3.7-8.3-8.2 0-4.6 3.7-8.3 8.3-8.3 4.6 0 8.3 3.7 8.3 8.3z"/>
							<path id="&lt;Path&gt;" class="s26" d="m748.2 369.6c-1.5 0.9-3.1 2.6-4.9 2.7-1.9 0.1-3.8-1.4-4.6-3-1-1.9-0.8-4.1 0-6.1 0.8-1.9 2.3-3.5 3.9-4.8 5.2-4.5 12.4-6.6 19.2-5.7 2.5 0.3 5.2 1.1 7 3 1.8 1.8 2.5 4.9 1.1 7.1-0.9 1.4-2.6 2.1-4.2 2.5-1.6 0.3-3.3 0.3-4.9 0.4-4.5 0.2-8.8 1.6-12.6 3.9z"/>
							<path id="&lt;Path&gt;" class="s26" d="m832.2 347.6c-1.3 0.6-2.5 1.2-3.9 1.6-1.3 0.3-2.9 0.2-4.2-0.7-2-1.4-2.9-4.4-2.4-6.7 0.5-2.4 2.1-4.1 3.8-5.3 4.6-3.4 10.9-4.2 16.7-2.2 1.8 0.6 3.6 1.5 5.1 2.9 1.5 1.4 2.6 3.4 2.8 5.4 0.1 1.8-0.7 3.8-2.1 4.4-1.4 0.7-3.3-0.3-4.8-0.6-3.8-0.6-7.7-0.2-11 1.2z"/>
							<path id="&lt;Path&gt;" class="s4" d="m768.2 452.7l23.4 7.1c10.3 3.2 21.5 0.6 29.4-6.8l5.5-5.1c3.4-3.2 4.5-8.1 2.8-12.4l-3.4-8.9 4.1-1.4 4.6 10.4c1.5 3.5 4.8 6 8.6 6.6l7 1.1c12.1 1.8 24-3.9 30.3-14.3l6.4-10.6-9.3 29.7c-3.8 12.1-13.5 21.5-25.8 24.8l-16 4.3c-9.1 2.5-18.8 1.4-27.2-3z"/>
							<path id="&lt;Path&gt;" class="s27" d="m878.2 506.3c-0.3 6-2.2 12.2-6.2 16.7-3.6 4.1-9 6.7-14.4 7-5.5 0.2-11.1-1.8-15.1-5.5-5.9-5.4-8.1-13.7-8.9-21.7-0.8-7.9-1.4-16.8-3.4-24.5q0 0 0 0c-5.5 0.6-11.1-0.1-16.3-1.9 0.2-2.8 1.1-5.5 2.4-7.9 3.2-5.6 8.7-9.6 14.5-12.3 8.8-4 19.5-5.1 27.9-0.4 3.6 2 6.6 4.9 9 8.3 1.3 1.8 2.4 3.8 3.3 5.8 2.7 5.8 4.1 12 5.3 18.3 1.2 5.9 2.3 12 1.9 18.1z"/>
							<path id="&lt;Path&gt;" class="s4" d="m840.6 413.6c-0.8 2.3-1.7 4.6-2.9 6.4-2.5 3.8-5.9 7.1-10.1 8.7-4 1.5-8.5 1.3-12.8 0.7-4-0.6-8.1-1.8-12.1-3.4-3.9-1.5-4.2-7.1-0.4-9 10.3-5.1 21.5-8.5 33-9.9 3.7-0.4 6.5 3 5.3 6.5z"/>
							<path id="&lt;Path&gt;" class="s4" d="m685.9 363.5l21.7-20.2c4.4-4.2 11.7-1.5 12.5 4.5l10.6 85.6c2.5 20.3-2.5 40.8-14.2 57.5l-6.6 9.5c-3.5 5-11.1 3.8-12.9-1.9l-25.5-79.6c-6.4-19.7-0.7-41.3 14.4-55.4z"/>
						</g>
						<path id="&lt;Path&gt;" class="s4" d="m754.2 558.3c3.9-8.2 12.1-13.6 21.3-13.9l22.2-0.8c5.7-0.2 11 2.8 13.7 7.9l6.2 11.3c2.4 4.4 2.1 9.6-0.6 13.7-2 3-5.2 5.1-8.7 5.7l-16.8 3c-10.3 1.8-20.6-2.6-26.5-11.2z"/>
						<path id="&lt;Path&gt;" class="s4" d="m898.1 558.3c3.9-8.2 12.1-13.6 21.3-13.9l22.2-0.8c5.7-0.2 11.1 2.8 13.8 7.9l6.1 11.3c2.4 4.4 2.1 9.6-0.6 13.7-2 3-5.1 5.1-8.7 5.7l-16.8 3c-10.2 1.8-20.6-2.6-26.5-11.2z"/>
					</g>
					<path id="&lt;Path&gt;" class="s28" d="m1020.5 965.1h-831.1c-4 0-7.2-3.2-7.2-7.2 0-4 3.2-7.2 7.2-7.2h831.1c4 0 7.2 3.2 7.2 7.2 0 4-3.2 7.2-7.2 7.2z"/>
				</g>
			</g>
		</g>
		<g id="&lt;Group&gt;">
			<g id="&lt;Group&gt;">
				<path id="&lt;Path&gt;" class="s4" d="m67.4 349.6c-6.5-18.6-3.1-23.4-2.9-24 3.4-9 13.8-12.6 21.4-8.8 7.7 3.8 8.7 11.7 8.7 11.7 0 0 7-4 14.6-0.1 7.7 3.8 11.1 14.2 6 22.4-0.3 0.5-2.2 6.2-20.9 12.1-8 2.6-12.7 3.9-15.5 4.6-2.3 0.6-4.8-0.6-5.7-2.8-1.1-2.7-2.9-7.2-5.7-15.1z"/>
			</g>
			<path id="&lt;Path&gt;" class="s4" d="m77.7 303.6c0.1 6.1-3.6 11.1-8.3 11.3-4.8 0.1-8.7-4.7-8.9-10.8-0.2-6.1 3.5-11.1 8.3-11.2 4.7-0.2 8.7 4.7 8.9 10.7z"/>
			<path id="&lt;Path&gt;" class="s4" d="m102.7 303.4c-2.3 7.3-8.8 11.8-14.5 10-5.7-1.8-8.5-9.2-6.1-16.5 2.3-7.3 8.8-11.8 14.5-9.9 5.7 1.8 8.4 9.1 6.1 16.4z"/>
			<path id="&lt;Path&gt;" class="s4" d="m109.7 306.9c4.5-6.2 12-8.5 16.9-5 4.9 3.4 5.3 11.3 0.8 17.5-4.4 6.3-11.9 8.6-16.8 5.1-4.9-3.4-5.3-11.3-0.9-17.6z"/>
			<path id="&lt;Path&gt;" class="s4" d="m134.7 341c-4.9 3.5-11.2 3.3-13.9-0.6-2.8-3.8-1-9.8 3.9-13.4 5-3.5 11.2-3.3 14 0.6 2.7 3.9 1 9.8-4 13.4z"/>
		</g>
		<g id="&lt;Group&gt;">
			<g id="&lt;Group&gt;">
				<path id="&lt;Path&gt;" class="s4" d="m112.5 893.8c-25.2-15.1-25.9-23.9-26.2-24.9-4.7-13.5 3.9-27.5 16.4-30.4 12.4-2.9 21.1 5.3 21.1 5.3 0 0 4.2-11.2 16.7-14.1 12.4-2.9 26.3 5.8 28.1 20.1 0.1 0.9 3.4 9.2-12.5 33.9-6.8 10.5-10.9 16.5-13.4 19.9-2.2 2.9-6.1 3.9-9.3 2.2-3.8-2-10.2-5.6-20.9-12z"/>
			</g>
			<path id="&lt;Path&gt;" class="s4" d="m80.7 831.2c5.9 6.9 6.4 16.2 1.1 20.8-5.3 4.7-14.5 2.9-20.5-3.9-5.9-6.9-6.4-16.2-1.1-20.8 5.4-4.7 14.5-2.9 20.5 3.9z"/>
			<path id="&lt;Path&gt;" class="s4" d="m109.3 807.2c4.3 10.6 1 21.9-7.3 25.2-8.2 3.4-18.4-2.5-22.7-13.1-4.2-10.6-1-21.9 7.3-25.2 8.2-3.4 18.4 2.5 22.7 13.1z"/>
			<path id="&lt;Path&gt;" class="s4" d="m120.7 804.6c-0.8-11.4 5.7-21.2 14.6-21.9 8.9-0.6 16.8 8.1 17.6 19.5 0.9 11.3-5.6 21.1-14.5 21.8-8.9 0.7-16.8-8-17.7-19.4z"/>
			<path id="&lt;Path&gt;" class="s4" d="m181.8 820c-2.4 8.8-9.8 14.4-16.6 12.6-6.9-1.8-10.5-10.4-8.2-19.2 2.3-8.7 9.8-14.4 16.6-12.5 6.8 1.8 10.5 10.4 8.2 19.1z"/>
		</g>
		<g id="&lt;Group&gt;">
			<g id="&lt;Group&gt;">
				<path id="&lt;Path&gt;" class="s4" d="m1080.3 497.5c-0.9 2.3-3.4 3.5-5.7 2.9-2.8-0.7-7.5-2.1-15.5-4.6-18.7-6-20.6-11.6-20.9-12.2-5.1-8.1-1.7-18.6 6-22.4 7.6-3.8 14.6 0.2 14.6 0.2 0 0 1-7.9 8.7-11.8 7.6-3.8 18-0.2 21.4 8.8 0.2 0.6 3.6 5.5-2.9 24-2.8 7.9-4.6 12.5-5.7 15.1z"/>
			</g>
			<path id="&lt;Path&gt;" class="s4" d="m1084.6 425.7c4.8 0.2 8.5 5.2 8.3 11.3-0.2 6-4.1 10.9-8.9 10.7-4.7-0.1-8.4-5.1-8.3-11.2 0.2-6.1 4.2-10.9 8.9-10.8z"/>
			<path id="&lt;Path&gt;" class="s4" d="m1056.8 419.8c5.7-1.8 12.2 2.7 14.5 10 2.4 7.3-0.4 14.7-6.1 16.5-5.7 1.8-12.2-2.7-14.5-10-2.3-7.3 0.4-14.7 6.1-16.5z"/>
			<path id="&lt;Path&gt;" class="s4" d="m1042.8 457.4c-4.9 3.4-12.4 1.2-16.8-5.1-4.5-6.2-4.1-14.1 0.8-17.6 4.9-3.4 12.4-1.1 16.9 5.1 4.4 6.3 4 14.1-0.9 17.6z"/>
			<path id="&lt;Path&gt;" class="s4" d="m1014.7 460.5c2.8-3.9 9-4.2 14-0.6 4.9 3.5 6.7 9.5 3.9 13.4-2.7 3.8-9 4.1-13.9 0.5-5-3.5-6.7-9.5-4-13.3z"/>
		</g>
		<path id="&lt;Path&gt;" class="s4" d="m1051.1 1053.6c-6.7-2.7-14.4 5.5-21 2.8-5-2-7.2-7.9-5.2-12.9 2.1-5 8.4-6.7 10.5-5.9-2.1-0.8-5.4-6.4-3.4-11.4 2-5 7.8-7.7 12.8-5.7 6.5 2.7 6.3 14 13 16.7l45.6 18.6c6.7 2.7 14.4-5.5 21-2.8 5 2 7.2 7.9 5.1 13-2 5-8.4 6.6-10.4 5.8 2 0.8 5.4 6.4 3.4 11.5-2.1 5-7.8 7.6-12.8 5.6-6.5-2.7-6.3-13.9-13-16.7z"/>
		<path id="&lt;Path&gt;" class="s4" d="m955 212c-4.9 2-4.8 10.3-9.5 12.2-3.7 1.5-7.8-0.5-9.3-4.1-1.5-3.7 0.9-7.8 2.4-8.4-1.5 0.6-6.1-0.6-7.6-4.2-1.5-3.7 0.1-8 3.8-9.5 4.8-1.9 10.4 4 15.3 2l33.2-13.5c4.9-2 4.8-10.2 9.5-12.2 3.7-1.4 7.9 0.5 9.3 4.2 1.5 3.6-0.9 7.7-2.4 8.3 1.5-0.6 6.1 0.6 7.6 4.3 1.5 3.6-0.1 7.9-3.8 9.4-4.8 2-10.4-4-15.3-2z"/>
	</g>
</svg>